Coordinates
version=1
nRows=21
nColumns=22
inDegrees=yes

Units are S.I. units (second, meters, Newtons, ...)
If the header above contains a line with 'inDegrees', this indicates whether rotational values are in degrees (yes) or radians (no).

endheader
time	pelvis_tilt	pelvis_list	pelvis_rotation	pelvis_tx	pelvis_ty	pelvis_tz	hip_flexion_r	hip_adduction_r	hip_rotation_r	knee_angle_r	ankle_angle_r	subtalar_angle_r	hip_flexion_l	hip_adduction_l	hip_rotation_l	knee_angle_l	ankle_angle_l	subtalar_angle_l	lumbar_extension	lumbar_bending	lumbar_rotation
      3.82000000	      1.05905720	     -0.96901714	    172.20988558	      0.09354989	      1.00996470	     -0.17185458	      6.12678077	     -0.48387764	     -0.93858716	    -27.81077910	     15.26926780	      5.80899683	     10.95359975	      0.30742089	     -5.50371262	    -16.15561484	     10.35825028	     -4.48717260	    -13.92912170	     -1.52395203	      4.17982885
      3.83000000	      1.15395761	     -0.90435650	    172.19148462	      0.09702915	      1.00998179	     -0.17387741	      5.88695462	     -0.23964787	     -1.24112183	    -26.82766959	     15.42184362	      4.98396093	     11.28357593	      0.08183389	     -5.42726671	    -16.22801268	     10.12188701	     -4.44911129	    -13.90938616	     -1.48842457	      4.34378329
      3.84000000	      1.26010736	     -0.80810282	    172.19943821	      0.10051966	      1.01003340	     -0.17581081	      5.71717878	      0.04772433	     -1.53400140	    -25.95539625	     15.49451282	      4.27215200	     11.62181967	     -0.16809451	     -5.31258173	    -16.29854880	      9.93412055	     -4.42680625	    -13.88558775	     -1.40376307	      4.48548577
      3.85000000	      1.36779043	     -0.69332368	    172.23113685	      0.10400196	      1.01011905	     -0.17765952	      5.59750379	      0.35746447	     -1.79626346	    -25.17649771	     15.48442399	      3.70539796	     11.95025924	     -0.42790237	     -5.17273407	    -16.35131410	      9.78829012	     -4.41066952	    -13.86394132	     -1.28866265	      4.59839688
      3.86000000	      1.47219861	     -0.62373271	    172.26055570	      0.10750924	      1.01019308	     -0.17945583	      5.55027693	      0.61579198	     -2.00920606	    -24.52628184	     15.51310164	      3.01048610	     12.26865228	     -0.63411442	     -5.04277141	    -16.38008482	      9.59497836	     -4.38393500	    -13.84532166	     -1.22809172	      4.71706347
      3.87000000	      1.57473160	     -0.54794932	    172.31941188	      0.11099487	      1.01026734	     -0.18116706	      5.53205381	      0.87128266	     -2.18851748	    -23.94115763	     15.49617062	      2.52533020	     12.57158349	     -0.83792534	     -4.90030361	    -16.38460597	      9.44786616	     -4.34345745	    -13.83041114	     -1.15394072	      4.79644270
      3.88000000	      1.66857490	     -0.47207814	    172.40402282	      0.11447161	      1.01033824	     -0.18279714	      5.53435186	      1.11383726	     -2.33115644	    -23.41700673	     15.44942387	      2.21217151	     12.85371224	     -1.03311467	     -4.75244261	    -16.36508509	      9.32280441	     -4.28736457	    -13.82808533	     -1.07546898	      4.83917283
      3.89000000	      1.76831184	     -0.43137769	    172.50117139	      0.11796452	      1.01034848	     -0.18437020	      5.58680908	      1.31009387	     -2.43395597	    -22.96997119	     15.45830449	      1.84885070	     13.14087698	     -1.18897661	     -4.61812131	    -16.33384209	      9.19005902	     -4.17741255	    -13.81735119	     -1.03789329	      4.86046580
      3.90000000	      1.85055936	     -0.38330424	    172.62036990	      0.12142560	      1.01037121	     -0.18587303	      5.63363174	      1.49887933	     -2.53115666	    -22.55381788	     15.42544170	      1.66616529	     13.39284105	     -1.34497900	     -4.48556213	    -16.27387277	      9.09387833	     -4.06527774	    -13.82631602	     -0.98920194	      4.84821110
      3.91000000	      1.90541350	     -0.35453942	    172.72510136	      0.12486506	      1.01041560	     -0.18736514	      5.67485346	      1.66191923	     -2.56392064	    -22.18192403	     15.45031785	      1.58345462	     13.59378275	     -1.48008099	     -4.39429316	    -16.17577033	      8.96602713	     -3.98903566	    -13.86360697	     -0.97114175	      4.83795984
      3.92000000	      2.01619106	     -0.32221541	    172.88833601	      0.12832931	      1.01032547	     -0.18872510	      5.79996429	      1.82192547	     -2.70167781	    -21.85099504	     15.39152168	      1.26817195	     13.89440527	     -1.61482806	     -4.26174281	    -16.14112752	      8.97273908	     -3.69220505	    -13.83829036	     -0.93109814	      4.77699404
      3.93000000	      2.08101027	     -0.28022851	    173.02659944	      0.13172100	      1.01032279	     -0.19008835	      5.88170937	      1.98811791	     -2.80736962	    -21.53534828	     15.32646943	      1.09619651	     14.11187718	     -1.75797411	     -4.17833112	    -16.05728996	      8.99312413	     -3.50560636	    -13.85989807	     -0.88880824	      4.72676023
      3.94000000	      2.14508602	     -0.24353784	    173.15941618	      0.13507153	      1.01031453	     -0.19142825	      5.97637946	      2.15134117	     -2.91245307	    -21.24629672	     15.25273728	      0.86267165	     14.33112261	     -1.89682339	     -4.11874491	    -15.98195848	      9.06063134	     -3.28615699	    -13.87641146	     -0.85621221	      4.68382278
      3.95000000	      2.18884668	     -0.18949452	    173.29326677	      0.13834973	      1.01035108	     -0.19271700	      6.04699499	      2.33505689	     -2.99793504	    -20.96091700	     15.14729189	      0.67347846	     14.52425726	     -2.04882871	     -4.07062130	    -15.90847551	      9.19957735	     -3.13493761	    -13.91346326	     -0.79955408	      4.63889656
      3.96000000	      2.25677197	     -0.16821842	    173.42796181	      0.14153005	      1.01034029	     -0.19396804	      6.16854358	      2.48371323	     -3.13667339	    -20.72259751	     15.04013264	      0.21358907	     14.74877328	     -2.16974173	     -4.06082372	    -15.84628215	      9.37669003	     -2.81882774	    -13.90423887	     -0.77928318	      4.59296742
      3.97000000	      2.28477228	     -0.11186091	    173.57202200	      0.14458509	      1.01040455	     -0.19515768	      6.23222142	      2.66539268	     -3.27087042	    -20.47599378	     14.91065962	     -0.07595100	     14.93282230	     -2.31941334	     -4.05111799	    -15.80680937	      9.63977730	     -2.66016971	    -13.93688500	     -0.71611493	      4.56006159
      3.98000000	      2.32477251	     -0.09647950	    173.71932496	      0.14752314	      1.01044874	     -0.19630277	      6.32529639	      2.80691995	     -3.39379397	    -20.26255247	     14.76458999	     -0.54374176	     15.13039440	     -2.42509676	     -4.06549553	    -15.77187515	      9.92587015	     -2.43170282	    -13.93774208	     -0.69528534	      4.48019036
      3.99000000	      2.33524727	     -0.05284767	    173.86645132	      0.15034125	      1.01053592	     -0.19739248	      6.38907819	      2.96859413	     -3.53898602	    -20.07050750	     14.64415926	     -0.85371752	     15.30309900	     -2.55685120	     -4.09437159	    -15.77018594	     10.26030329	     -2.30821690	    -13.96656420	     -0.64014782	      4.43659386
      4.00000000	      2.35076622	     -0.03212789	    174.01827164	      0.15305775	      1.01061370	     -0.19842596	      6.47225257	      3.10391670	     -3.67695490	    -19.90981438	     14.51399624	     -1.24559453	     15.49218264	     -2.66321572	     -4.14490146	    -15.79801397	     10.59400005	     -2.16142393	    -13.97690719	     -0.60817610	      4.37300421
      4.01000000	      2.35989285	     -0.02523327	    174.16293385	      0.15569055	      1.01070343	     -0.19940724	      6.56287052	      3.21908475	     -3.79456712	    -19.78062275	     14.38884641	     -1.61910634	     15.68447808	     -2.75443847	     -4.22431626	    -15.85887359	     10.91097123	     -2.02617556	    -13.98741380	     -0.58790282	      4.31155213
      4.02000000	      2.35662575	     -0.02325701	    174.30047478	      0.15825309	      1.01081834	     -0.20032643	      6.65501820	      3.31944310	     -3.90287070	    -19.68317356	     14.26982452	     -1.93037494	     15.87375697	     -2.83753705	     -4.32623780	    -15.95685778	     11.21013878	     -1.91448680	    -14.00770576	     -0.56895490	      4.26417024
